<?xml version="1.0" standalone="no"?>
<!DOCTYPE svg PUBLIC "-//W3C//DTD SVG 20010904//EN"
 "http://www.w3.org/TR/2001/REC-SVG-20010904/DTD/svg10.dtd">
<svg version="1.0" xmlns="http://www.w3.org/2000/svg"
 width="260.000000pt" height="260.000000pt" viewBox="0 0 260.000000 260.000000"
 preserveAspectRatio="xMidYMid meet">
<metadata>
Created by potrace 1.11, written by Peter Selinger 2001-2013
</metadata>
<g transform="translate(0.000000,260.000000) scale(0.100000,-0.100000)"
fill="#000000" stroke="none">
<path d="M0 1300 l0 -1300 1300 0 1300 0 0 1300 0 1300 -1300 0 -1300 0 0
-1300z m1948 527 c65 -22 172 -83 171 -97 0 -3 -35 -43 -77 -89 l-78 -84 -47
36 c-108 83 -271 64 -292 -34 -9 -38 17 -83 59 -103 18 -9 81 -32 137 -52 57
-19 122 -46 145 -59 51 -30 109 -93 129 -142 21 -48 24 -154 6 -214 -16 -57
-73 -134 -126 -171 -124 -86 -352 -96 -512 -24 -63 29 -142 85 -143 101 0 6
36 46 79 89 l79 79 39 -31 c86 -70 210 -95 283 -57 43 22 65 75 50 121 -15 46
-59 73 -190 119 -134 48 -171 67 -215 110 -60 61 -70 88 -70 200 0 115 13 150
78 216 113 112 317 148 495 86z m-718 -107 l0 -110 -225 0 -226 0 3 -107 3
-108 203 -3 202 -2 0 -105 0 -105 -205 0 -205 0 0 -205 0 -205 -125 0 -125 0
0 530 0 530 350 0 350 0 0 -110z"/>
</g>
</svg>
